<svg width="200" height="162" viewBox="0 0 200 162" fill="none" xmlns="http://www.w3.org/2000/svg">
<path d="M0 87C0 62.1472 20.1472 42 45 42H120V162H0V87Z" fill="#A8DADC"/>
<path d="M200 70C200 85.6951 194.725 100.935 185.023 113.272C175.321 125.609 161.754 134.327 146.501 138.027C131.249 141.727 115.195 140.194 100.918 133.673C86.642 127.153 74.971 116.023 67.7798 102.073C60.5887 88.1219 58.2945 72.1592 61.2659 56.7479C64.2372 41.3367 72.3015 27.3711 84.1639 17.0939C96.0263 6.81677 110.998 0.824349 126.676 0.0789816C142.353 -0.666385 157.826 3.87855 170.61 12.9839L130 70H200Z" fill="#1D3557"/>
<path d="M183.79 37.2012L194.997 42.293L0 161.914V149.473L183.347 37L183.79 37.2012Z" fill="#E63946"/>
</svg>
